# xmcd CD database file
#
# Track frame offsets:
#	150
#	11998
#	25813
#	37504
#	48695
#	60444
#	71379
#	83673
#	95282
#	107520
#	119343
#	128524
#	140473
#	153545
#	166260
#	178575
#	191273
#	204868
#
# Disc length: 2916 seconds
#
# Revision: 0
# Processed by: cddbd v1.5.2PL0 Copyright (c) Steve Scherf et al.
# Submitted via: CDex 1.51
#
DISCID=da0b6212
DTITLE=Delmore Brothers 1931 - 1951 - Blues Stays Away From Me
DYEAR=2003
DGENRE=Country
TTITLE0=Lorena, The Slave
TTITLE1=Take Away This Lonesome Day
TTITLE2=It's Takin' Me Down
TTITLE3=Lonesome Yodel Blues #2
TTITLE4=Goodbye Booze
TTITLE5=Careless Love
TTITLE6=Over The Hills
TTITLE7=Rainin' On The Mountain
TTITLE8=The Storm Are On The Ocean
TTITLE9=See That Coon In A Hickory Tree
TTITLE10=Midnight Train
TTITLE11=I Won't Be Worried Long
TTITLE12=Mississippi Shore
TTITLE13=Going Back To The Blue Ridge Mountains
TTITLE14=Long Journey Home
TTITLE15=Blues Stays Away From Me
TTITLE16=Life's Too Short
TTITLE17=The Girl By The River
EXTD=YEAR: 2003
EXTT0=
EXTT1=
EXTT2=
EXTT3=
EXTT4=
EXTT5=
EXTT6=
EXTT7=
EXTT8=
EXTT9=
EXTT10=
EXTT11=
EXTT12=
EXTT13=
EXTT14=
EXTT15=
EXTT16=
EXTT17=
PLAYORDER=
